# This file uses centimeters as units for non-parametric coordinates.

mtllib wall.mtl
g default
v 0.000463 0.098839 0.004996
v -0.078905 0.098839 0.005368
v -0.078905 0.098839 -0.005495
v 0.000463 0.098839 -0.005495
v 0.079832 0.098839 -0.005495
v 0.079832 0.098839 0.004625
v -0.157845 0.173706 0.004281
v -0.158274 0.172673 0.004283
v -0.157844 0.172671 0.005315
v -0.156808 0.172669 0.005738
v -0.156810 0.173705 0.005310
v -0.156812 0.174135 0.004276
v -0.156808 0.098839 0.005732
v -0.157844 0.098839 0.005307
v -0.158274 0.098839 0.004274
v -0.157844 0.025010 0.005314
v -0.158274 0.025010 0.004280
v -0.157845 0.023973 0.004279
v -0.156812 0.023544 0.004276
v -0.156810 0.023973 0.005310
v -0.156808 0.025010 0.005738
v -0.157845 0.025006 -0.005060
v -0.156812 0.025006 -0.005489
v -0.156812 0.023972 -0.005060
v -0.156812 0.023544 -0.004026
v -0.157845 0.023972 -0.004026
v -0.158274 0.025006 -0.004026
v 0.157364 0.173706 0.003838
v 0.157364 0.172673 0.004267
v 0.158398 0.172674 0.003835
v 0.158826 0.172676 0.002801
v 0.158398 0.173707 0.002801
v 0.157364 0.174135 0.002805
v 0.157364 0.173706 -0.005060
v 0.157364 0.174135 -0.004026
v 0.158398 0.173706 -0.004026
v 0.158826 0.172673 -0.004026
v 0.158398 0.172672 -0.005060
v 0.157364 0.172673 -0.005489
v 0.158826 0.098839 0.002795
v 0.158399 0.098839 0.003829
v 0.157367 0.098839 0.004260
v -0.078905 0.174135 0.003912
v -0.078905 0.173706 0.004946
v -0.078905 0.172672 0.005374
v 0.157364 0.098839 -0.005495
v 0.158398 0.098839 -0.005066
v 0.158826 0.098839 -0.004032
v 0.158398 0.025006 -0.005060
v 0.158826 0.025006 -0.004026
v 0.158398 0.023972 -0.004026
v 0.157364 0.023544 -0.004026
v 0.157364 0.023972 -0.005060
v 0.157364 0.025006 -0.005489
v 0.158399 0.025003 0.003835
v 0.157367 0.025003 0.004267
v 0.157366 0.023971 0.003838
v 0.157364 0.023544 0.002805
v 0.158398 0.023971 0.002801
v 0.158826 0.025003 0.002801
v -0.156812 0.173706 -0.005060
v -0.156812 0.172673 -0.005489
v -0.157845 0.172673 -0.005060
v -0.158274 0.172673 -0.004026
v -0.157845 0.173706 -0.004026
v -0.156812 0.174135 -0.004026
v -0.158274 0.098839 -0.004032
v -0.157845 0.098839 -0.005066
v -0.156812 0.098839 -0.005495
v 0.079832 0.174135 -0.004026
v 0.079832 0.173706 -0.005060
v 0.079832 0.172673 -0.005489
v -0.078905 0.023544 0.003912
v -0.078905 0.023972 0.004946
v -0.078905 0.025006 0.005374
v 0.079832 0.023544 -0.004026
v 0.079832 0.023972 -0.005060
v 0.079832 0.025006 -0.005489
v 0.000463 0.174135 0.003540
v 0.000463 0.173706 0.004574
v 0.000463 0.172672 0.005002
v 0.079832 0.174135 0.003169
v 0.079832 0.173706 0.004203
v 0.079832 0.172672 0.004631
v 0.000463 0.172673 -0.005489
v 0.000463 0.173706 -0.005060
v 0.000463 0.174135 -0.004026
v -0.078905 0.174135 -0.004026
v -0.078905 0.173706 -0.005060
v -0.078905 0.172673 -0.005489
v 0.000463 0.023544 -0.004026
v 0.000463 0.023972 -0.005060
v 0.000463 0.025006 -0.005489
v -0.078905 0.023544 -0.004026
v -0.078905 0.023972 -0.005060
v -0.078905 0.025006 -0.005489
v 0.000463 0.023544 0.003540
v 0.000463 0.023972 0.004574
v 0.000463 0.025006 0.005002
v 0.079832 0.023544 0.003169
v 0.079832 0.023972 0.004203
v 0.079832 0.025006 0.004631
v -0.157654 0.173516 0.005124
v -0.157654 0.024164 0.005123
v -0.157655 0.024162 -0.004870
v 0.158208 0.173517 0.003645
v 0.158208 0.173516 -0.004870
v 0.158208 0.024162 -0.004870
v 0.158209 0.024161 0.003645
v -0.157655 0.173516 -0.004870
v -0.158274 0.098839 0.000121
v -0.158921 0.024891 0.000103
v -0.157845 0.023973 0.000127
v -0.156812 0.023544 0.000125
v -0.078905 0.023544 -0.000057
v 0.000463 0.023544 -0.000243
v 0.079832 0.023544 -0.000429
v 0.157364 0.023544 -0.000611
v 0.158398 0.023972 -0.000613
v 0.158826 0.025004 -0.000613
v 0.158826 0.098839 -0.000619
v 0.158826 0.172674 -0.000613
v 0.158398 0.173707 -0.000613
v 0.157364 0.174135 -0.000611
v 0.079832 0.174135 -0.000429
v 0.000463 0.174135 -0.000243
v -0.078905 0.174135 -0.000057
v -0.156812 0.174135 0.000125
v -0.157845 0.173706 0.000127
v -0.158274 0.172673 0.000128
vt 0.527402 0.036535
vt 0.524216 0.037218
vt 0.042071 0.964239
vt 0.045347 0.964656
vt 0.521431 0.042511
vt 0.028368 0.948027
vt 0.527820 0.042921
vt 0.527659 0.039726
vt 0.739628 0.038022
vt 0.739645 0.041273
vt 0.739612 0.034775
vt 0.524622 0.042764
vt 0.523718 0.268191
vt 0.520480 0.268141
vt 0.526958 0.268249
vt 0.956037 0.041631
vt 0.955298 0.038485
vt 0.487983 0.948768
vt 0.488442 0.945495
vt 0.950051 0.035721
vt 0.471772 0.962407
vt 0.476526 0.944423
vt 0.473335 0.944168
vt 0.473956 0.719285
vt 0.477195 0.719348
vt 0.470143 0.944022
vt 0.470716 0.719224
vt 0.535245 0.954897
vt 0.535475 0.951697
vt 0.745595 0.952489
vt 0.745611 0.955731
vt 0.535608 0.948491
vt 0.745577 0.949243
vt 0.529223 0.949034
vt 0.529993 0.952204
vt 0.027509 0.036138
vt 0.027006 0.039418
vt 0.041887 0.024650
vt 0.036805 0.040376
vt 0.039998 0.040657
vt 0.037293 0.262499
vt 0.034057 0.262422
vt 0.043193 0.040832
vt 0.040530 0.262574
vt 0.043031 0.037631
vt 0.253254 0.033986
vt 0.253271 0.037231
vt 0.042771 0.034430
vt 0.253237 0.030743
vt 0.479521 0.036927
vt 0.467802 0.022721
vt 0.963173 0.951162
vt 0.963893 0.947977
vt 0.464519 0.022288
vt 0.957922 0.953947
vt 0.960701 0.947710
vt 0.961426 0.723201
vt 0.964664 0.723279
vt 0.957514 0.947553
vt 0.958188 0.723133
vt 0.046269 0.952712
vt 0.046489 0.949518
vt 0.258364 0.948450
vt 0.258380 0.951697
vt 0.046613 0.946324
vt 0.258348 0.945199
vt 0.035261 0.492148
vt 0.038495 0.492134
vt 0.040221 0.721678
vt 0.036984 0.721780
vt 0.041730 0.492120
vt 0.043461 0.721577
vt 0.253181 0.020874
vt 0.739558 0.022766
vt 0.257099 0.720359
vt 0.949647 0.042125
vt 0.954568 0.264336
vt 0.740288 0.267211
vt 0.488656 0.719564
vt 0.961042 0.264136
vt 0.025512 0.722140
vt 0.521991 0.498065
vt 0.524143 0.727646
vt 0.023672 0.262176
vt 0.024335 0.492194
vt 0.469873 0.489733
vt 0.255811 0.491730
vt 0.254517 0.263190
vt 0.468493 0.260181
vt 0.963074 0.493765
vt 0.487267 0.489611
vt 0.485355 0.259593
vt 0.744840 0.724423
vt 0.742589 0.495680
vt 0.956606 0.493797
vt 0.463373 0.038508
vt 0.528458 0.497992
vt 0.530614 0.727398
vt 0.949791 0.038922
vt 0.957671 0.950750
vt 0.525224 0.498024
vt 0.463503 0.035306
vt 0.463731 0.032105
vt 0.470314 0.947220
vt 0.470598 0.950416
vt 0.952845 0.041930
vt 0.957806 0.264233
vt 0.466567 0.038300
vt 0.471729 0.260070
vt 0.469760 0.037988
vt 0.474963 0.259957
vt 0.527378 0.727517
vt 0.532414 0.948706
vt 0.043423 0.946516
vt 0.040234 0.946811
vt 0.473107 0.489710
vt 0.476341 0.489687
vt 0.959841 0.493777
vt 0.524933 0.040039
vt 0.952504 0.039236
vt 0.475829 0.947579
vt 0.473022 0.946870
vt 0.532762 0.951425
vt 0.040313 0.037939
vt 0.037534 0.037223
vt 0.466220 0.035582
vt 0.468992 0.034815
vt 0.960388 0.950438
vt 0.043101 0.952065
vt 0.043767 0.949239
vt 0.526354 0.024600
vt 0.258444 0.963709
vt 0.509978 0.038199
vt 0.509517 0.041472
vt 0.509019 0.267974
vt 0.511066 0.498208
vt 0.513752 0.728069
vt 0.519463 0.950143
vt 0.531202 0.964260
vt 0.534486 0.964685
vt 0.745657 0.965603
vt 0.958783 0.963753
vt 0.973185 0.952160
vt 0.973668 0.948919
vt 0.975061 0.723531
vt 0.974000 0.493727
vt 0.972515 0.263797
vt 0.967904 0.040430
vt 0.955186 0.024552
vt 0.951145 0.023588
vt 0.028855 0.951259
vt 0.040975 0.949988
vt 0.038649 0.025107
vt 0.039587 0.035133
vt 0.475830 0.961535
vt 0.473757 0.949596
vt 0.466895 0.032770
vt 0.478990 0.033693
vt 0.962022 0.963297
vt 0.961102 0.953249
vt 0.532088 0.954235
vt 0.953221 0.036511
vt 0.522134 0.039350
vt 0.519999 0.953374
vt 0.967405 0.037163
vt 0.523118 0.025041
vn -0.996605 0.005301 0.082157
vn -0.924982 0.376182 0.053802
vn -0.923895 0.382646 0.000000
vn -0.999984 0.005720 0.000000
vn -0.375875 0.925088 0.054118
vn -0.004756 0.996468 0.083840
vn -0.005547 0.999985 0.000001
vn -0.382692 0.923876 0.000003
vn -0.000737 0.005611 0.999984
vn -0.378601 0.003467 0.925553
vn -0.379205 -0.000003 0.925313
vn -0.000761 -0.000000 1.000000
vn -0.923459 0.003494 0.383680
vn -0.993583 0.001741 0.113094
vn -0.923385 -0.000006 0.383875
vn -0.001586 0.923879 0.382681
vn 0.001789 0.923796 0.382881
vn 0.000399 0.996349 0.085367
vn 0.000953 0.381860 0.924220
vn 0.004679 0.005639 0.999973
vn 0.004318 0.382446 0.923968
vn -0.004762 -0.996467 0.083846
vn -0.376536 -0.924823 0.054066
vn -0.383070 -0.923719 0.000059
vn -0.005552 -0.999985 0.000001
vn -0.813719 -0.570795 0.109790
vn -0.989822 -0.005292 0.142212
vn -0.792423 -0.609972 -0.000530
vn -0.792435 -0.609956 0.000929
vn -0.005129 -0.996501 -0.083427
vn -0.003361 -0.924040 -0.382280
vn 0.000000 -0.923890 -0.382658
vn 0.000000 -0.996354 -0.085311
vn -0.003362 -0.382340 -0.924016
vn -0.005400 -0.005777 -0.999969
vn 0.000000 -0.005802 -0.999983
vn -0.000000 -0.382721 -0.923864
vn 0.995441 0.005239 0.095237
vn 0.924316 0.003515 0.381611
vn 0.924243 0.000003 0.381805
vn 0.995422 0.000001 0.095581
vn 0.385112 0.003488 0.922863
vn 0.010113 0.005618 0.999933
vn 0.010134 0.000000 0.999949
vn 0.385706 0.000006 0.922622
vn 0.005308 0.995636 0.093170
vn 0.374446 0.925115 0.062868
vn 0.382301 0.924038 -0.000066
vn 0.005303 0.999986 -0.000003
vn 0.924718 0.375399 0.063023
vn 0.999984 0.005719 -0.000002
vn 0.923736 0.383029 -0.000126
vn 0.004893 0.995600 -0.093575
vn 0.003378 0.924036 -0.382290
vn 0.000000 0.923884 -0.382673
vn 0.000000 0.995756 -0.092031
vn 0.003378 0.382351 -0.924011
vn 0.005425 0.005776 -0.999969
vn 0.000000 0.005802 -0.999983
vn 0.000000 0.382731 -0.923860
vn 0.382321 0.003619 -0.924022
vn 0.382704 -0.000000 -0.923871
vn 0.005451 -0.000000 -0.999985
vn 0.924054 0.003576 -0.382244
vn 0.995423 0.005246 -0.095425
vn 0.995397 -0.000000 -0.095839
vn 0.923897 -0.000000 -0.382641
vn 0.005303 -0.999986 -0.000001
vn 0.382285 -0.924045 -0.000068
vn 0.374473 -0.925121 0.062622
vn 0.005305 -0.995640 0.093125
vn 0.923729 -0.383045 -0.000125
vn 0.999984 -0.005719 -0.000002
vn 0.995445 -0.005236 0.095192
vn 0.924717 -0.375444 0.062765
vn 0.005142 -0.924180 0.381922
vn 0.001791 -0.923951 0.382507
vn 0.000431 -0.995761 0.091972
vn 0.007694 -0.382643 0.923864
vn 0.010108 -0.005613 0.999933
vn 0.004690 -0.005638 0.999973
vn 0.004327 -0.382818 0.923814
vn -0.996624 0.005318 -0.081924
vn -0.924055 0.003575 -0.382243
vn -0.923897 0.000000 -0.382641
vn -0.993583 0.001741 -0.113088
vn -0.382320 0.003620 -0.924023
vn -0.005400 0.005776 -0.999969
vn -0.005425 -0.000000 -0.999985
vn -0.382704 -0.000000 -0.923871
vn 0.000000 0.996072 -0.088548
vn 0.000000 0.923883 -0.382674
vn 0.000000 0.923884 -0.382672
vn 0.000000 0.996354 -0.085314
vn 0.000000 0.382731 -0.923860
vn 0.000000 0.005802 -0.999983
vn 0.000000 0.005802 -0.999983
vn 0.000000 0.382730 -0.923860
vn 1.000000 -0.000000 0.000000
vn -0.999998 0.002189 0.000005
vn -0.999990 0.004377 -0.000026
vn 0.000000 0.000000 -1.000000
vn -0.000738 -0.005611 0.999984
vn 0.004679 -0.005639 0.999973
vn 0.004679 0.000000 0.999989
vn 0.000000 -1.000000 0.000000
vn 0.000399 -0.996349 0.085367
vn 0.000000 1.000000 0.000001
vn 0.000414 0.996071 0.088552
vn 0.000432 0.995756 0.092027
vn 0.000000 1.000000 -0.000001
vn 0.000000 1.000000 0.000000
vn 0.000000 -0.005802 -0.999983
vn 0.000000 -0.000000 -1.000000
vn -0.000000 0.000000 -1.000000
vn -0.000000 -0.005802 -0.999983
vn 0.000414 -0.996072 0.088548
vn 0.000000 -1.000000 0.000000
vn 0.000000 -1.000000 0.000000
vn 0.004690 0.000000 0.999989
vn 0.004679 0.000000 0.999989
vn 0.004679 -0.005639 0.999973
vn 0.005425 -0.005776 -0.999969
vn 0.004679 0.005639 0.999973
vn 0.004690 0.005638 0.999973
vn -0.379003 -0.003465 0.925389
vn -0.923625 -0.003512 0.383282
vn 0.924481 -0.003516 0.381212
vn 0.385499 -0.003471 0.922702
vn 0.001791 0.923865 0.382715
vn 0.004323 0.382635 0.923890
vn 0.382293 -0.003620 -0.924034
vn 0.995423 -0.005246 -0.095423
vn 0.924054 -0.003576 -0.382244
vn -0.382293 -0.003621 -0.924034
vn -0.924055 -0.003576 -0.382243
vn -0.989766 -0.005320 -0.142598
vn 0.000939 -0.381874 0.924214
vn 0.004318 -0.382453 0.923965
vn -0.001600 -0.923872 0.382699
vn 0.001789 -0.923795 0.382883
vn 0.003378 -0.382339 -0.924016
vn 0.000000 -0.382721 -0.923864
vn 0.003377 -0.924040 -0.382280
vn 0.004892 -0.995601 -0.093568
vn 0.000000 -0.995757 -0.092025
vn 0.000000 -0.923890 -0.382658
vn 0.001795 0.923869 0.382706
vn 0.004333 0.382621 0.923895
vn 0.007712 0.382239 0.924031
vn 0.005143 0.924016 0.382318
vn -0.003362 0.382354 -0.924010
vn -0.003361 0.924033 -0.382298
vn -0.005127 0.996500 -0.083431
vn 0.000000 -0.382725 -0.923862
vn 0.000000 -0.996072 -0.088543
vn 0.000000 -0.923890 -0.382658
vn 0.004323 -0.382634 0.923890
vn 0.001790 -0.923871 0.382699
vn -0.323737 0.887986 0.326611
vn -0.887186 0.325357 0.327176
vn -0.321130 0.324725 0.889623
vn -0.322290 -0.324437 0.889309
vn -0.887793 -0.324536 0.326342
vn -0.324839 -0.887684 0.326338
vn -0.812837 -0.572059 -0.109747
vn -0.887943 -0.325263 -0.325211
vn -0.325294 -0.325298 -0.887899
vn -0.376318 -0.924939 -0.053603
vn -0.325287 -0.887928 -0.325226
vn 0.325442 0.887835 0.325324
vn 0.327451 0.325167 0.887154
vn 0.887737 0.325744 0.325289
vn 0.325415 0.325352 -0.887835
vn 0.374749 0.924972 -0.063156
vn 0.325377 0.887857 -0.325329
vn 0.924866 0.374998 -0.063242
vn 0.887876 0.325314 -0.325340
vn 0.325353 -0.325324 -0.887868
vn 0.924861 -0.375008 -0.063248
vn 0.887879 -0.325305 -0.325340
vn 0.374707 -0.924990 -0.063152
vn 0.325307 -0.887894 -0.325300
vn 0.888077 -0.326007 0.324097
vn 0.328227 -0.325992 0.886564
vn 0.325681 -0.888169 0.324173
vn -0.376163 0.924999 -0.053658
vn -0.325312 0.887904 -0.325268
vn -0.325352 0.325336 -0.887864
vn -0.925026 0.376100 -0.053632
vn -0.887940 0.325251 -0.325230
s 1
g pPlane18
usemtl aiStandardSurface3SG
f 8/1/1 7/2/2 129/166/3 130/131/4
s 2
f 7/163/5 12/5/6 128/134/7 129/133/8
s 3
f 10/7/9 9/8/10 14/9/11 13/10/12
s 1
f 9/8/13 8/1/1 15/11/14 14/9/15
s 2
f 12/5/6 11/12/16 44/13/17 43/14/18
s 3
f 11/12/19 10/7/9 45/15/20 44/13/21
s 4
f 19/16/22 18/17/23 113/165/24 114/148/25
s 1
f 18/162/26 17/20/27 112/150/28 113/149/29
s 4
f 25/22/30 24/23/31 95/24/32 94/25/33
s 7
f 24/23/34 23/26/35 96/27/36 95/24/37
s 8
f 31/28/38 30/29/39 41/30/40 40/31/41
s 3
f 30/29/42 29/32/43 42/33/44 41/30/45
s 2
f 33/34/46 32/35/47 123/164/48 124/138/49
s 8
f 32/161/50 31/28/38 122/140/51 123/139/52
s 2
f 35/39/53 34/40/54 71/41/55 70/42/56
s 7
f 34/40/57 39/43/58 72/44/59 71/41/60
f 39/43/58 38/45/61 47/46/62 46/47/63
s 8
f 38/45/64 37/48/65 48/49/66 47/46/67
s 4
f 118/144/68 119/143/69 59/52/70 58/53/71
s 8
f 119/159/72 120/142/73 60/55/74 59/160/75
s 4
f 58/53/71 57/56/76 101/57/77 100/58/78
s 3
f 57/56/79 56/59/80 102/60/81 101/57/82
s 1
f 64/61/83 63/62/84 68/63/85 67/64/86
s 7
f 63/62/87 62/65/88 69/66/89 68/63/90
s 2
f 87/67/91 86/68/92 89/69/93 88/70/94
s 7
f 86/68/95 85/71/96 90/72/97 89/69/98
s 8
f 60/55/74 120/142/73 121/141/99 40/31/41
s 1
f 15/11/14 111/74/100 112/150/101 17/20/27
s 7
f 23/26/35 69/66/89 3/75/102 96/27/36
s 3
f 13/10/12 21/76/103 75/77/104 2/78/105
s 4
f 114/148/25 115/147/106 73/80/107 19/16/22
s 2
f 12/5/6 43/14/18 127/135/108 128/134/7
f 79/82/109 82/83/110 125/137/111 126/136/112
s 7
f 93/86/113 4/87/114 5/88/115 78/89/116
s 4
f 97/90/117 116/146/118 117/145/119 100/58/78
s 3
f 6/93/120 1/94/121 99/95/122 102/60/81
s 2
f 43/14/18 79/82/109 126/136/112 127/135/108
s 7
f 96/27/36 3/75/102 4/87/114 93/86/113
s 4
f 73/80/107 115/147/106 116/146/118 97/90/117
s 3
f 2/78/105 75/77/104 99/95/122 1/94/121
s 2
f 82/83/110 33/34/46 124/138/49 125/137/111
s 7
f 78/89/116 5/88/115 46/47/63 54/96/123
s 4
f 100/58/78 117/145/119 118/144/68 58/53/71
s 3
f 6/93/120 102/60/81 56/59/80 42/33/44
f 45/15/20 2/78/105 1/94/121 81/97/124
f 10/7/9 13/10/12 2/78/105 45/15/20
s 1
f 8/1/1 130/131/4 111/74/100 15/11/14
s 7
f 3/75/102 69/66/89 62/65/88 90/72/97
f 4/87/114 3/75/102 90/72/97 85/71/96
f 5/88/115 4/87/114 85/71/96 72/44/59
f 46/47/63 5/88/115 72/44/59 39/43/58
s 8
f 40/31/41 121/141/99 122/140/51 31/28/38
s 3
f 84/98/125 6/93/120 42/33/44 29/32/43
f 81/97/124 1/94/121 6/93/120 84/98/125
f 13/10/12 14/9/11 16/99/126 21/76/103
s 1
f 14/9/15 15/11/14 17/20/27 16/99/127
s 8
f 40/31/41 41/30/40 55/100/128 60/55/74
s 3
f 41/30/45 42/33/44 56/59/80 55/100/129
s 2
f 43/14/18 44/13/17 80/101/130 79/82/109
s 3
f 44/13/21 45/15/20 81/97/124 80/101/131
s 7
f 46/47/63 47/46/62 49/102/132 54/96/123
s 8
f 47/46/67 48/49/66 50/103/133 49/102/134
s 7
f 23/26/35 22/104/135 68/63/90 69/66/89
s 1
f 22/104/136 27/105/137 67/64/86 68/63/85
s 3
f 21/76/103 20/106/138 74/107/139 75/77/104
s 4
f 20/106/140 19/16/22 73/80/107 74/107/141
s 7
f 54/96/123 53/108/142 77/109/143 78/89/116
s 4
f 53/108/144 52/110/145 76/111/146 77/109/147
s 2
f 79/82/109 80/101/130 83/112/148 82/83/110
s 3
f 80/101/131 81/97/124 84/98/125 83/112/149
f 29/32/43 28/113/150 83/112/149 84/98/125
s 2
f 28/113/151 33/34/46 82/83/110 83/112/148
f 70/42/56 71/41/55 86/68/92 87/67/91
s 7
f 71/41/60 72/44/59 85/71/96 86/68/95
f 62/65/88 61/114/152 89/69/98 90/72/97
s 2
f 61/114/153 66/115/154 88/70/94 89/69/93
s 7
f 78/89/116 77/109/143 92/116/155 93/86/113
s 4
f 77/109/147 76/111/146 91/117/156 92/116/157
s 7
f 93/86/113 92/116/155 95/24/37 96/27/36
s 4
f 92/116/157 91/117/156 94/25/33 95/24/32
s 3
f 75/77/104 74/107/139 98/118/158 99/95/122
s 4
f 74/107/141 73/80/107 97/90/117 98/118/159
s 3
f 99/95/122 98/118/158 101/57/82 102/60/81
s 4
f 98/118/159 97/90/117 100/58/78 101/57/77
s 2
f 11/12/16 12/5/6 7/163/5 103/119/160
s 1
f 7/2/2 8/1/1 9/8/13 103/119/161
s 3
f 9/8/10 10/7/9 11/12/19 103/119/162
f 20/106/138 21/76/103 16/99/126 104/120/163
s 1
f 16/99/127 17/20/27 18/162/26 104/120/164
s 4
f 18/17/23 19/16/22 20/106/140 104/120/165
s 1
f 26/156/166 27/105/137 22/104/136 105/122/167
s 7
f 22/104/135 23/26/35 24/23/34 105/122/168
s 4
f 24/23/31 25/22/30 26/121/169 105/122/170
s 2
f 32/35/47 33/34/46 28/113/151 106/123/171
s 3
f 28/113/150 29/32/43 30/29/42 106/123/172
s 8
f 30/29/39 31/28/38 32/161/50 106/123/173
s 7
f 38/45/61 39/43/58 34/40/57 107/124/174
s 2
f 34/40/54 35/39/53 36/125/175 107/124/176
s 8
f 36/154/177 37/48/65 38/45/64 107/124/178
s 7
f 53/108/142 54/96/123 49/102/132 108/126/179
s 8
f 49/102/134 50/103/133 51/157/180 108/126/181
s 4
f 51/127/182 52/110/145 53/108/144 108/126/183
s 8
f 59/160/75 60/55/74 55/100/128 109/128/184
s 3
f 55/100/129 56/59/80 57/56/79 109/128/185
s 4
f 57/56/76 58/53/71 59/52/70 109/128/186
s 2
f 65/152/187 66/115/154 61/114/153 110/130/188
s 7
f 61/114/152 62/65/88 63/62/87 110/130/189
s 1
f 63/62/84 64/61/83 65/129/190 110/130/191
f 111/132/100 67/64/86 27/105/137 112/21/101
f 113/155/29 112/21/28 27/105/137 26/156/166
s 4
f 114/19/25 113/18/24 26/121/169 25/22/30
f 25/22/30 94/25/33 115/79/106 114/19/25
f 116/91/118 115/79/106 94/25/33 91/117/156
f 117/92/119 116/91/118 91/117/156 76/111/146
f 118/50/68 117/92/119 76/111/146 52/110/145
f 52/110/145 51/127/182 119/158/69 118/50/68
s 8
f 51/157/180 50/103/133 120/54/73 119/51/72
f 121/73/99 120/54/73 50/103/133 48/49/66
f 122/38/51 121/73/99 48/49/66 37/48/65
f 123/153/52 122/38/51 37/48/65 36/154/177
s 2
f 124/37/49 123/36/48 36/125/175 35/39/53
f 125/84/111 124/37/49 35/39/53 70/42/56
f 126/85/112 125/84/111 70/42/56 87/67/91
f 127/81/108 126/85/112 87/67/91 88/70/94
f 128/6/7 127/81/108 88/70/94 66/115/154
f 129/151/8 128/6/7 66/115/154 65/152/187
s 1
f 130/4/4 129/3/3 65/129/190 64/61/83
f 111/132/100 130/4/4 64/61/83 67/64/86
