# This file uses centimeters as units for non-parametric coordinates.

mtllib upper wall.mtl
g default
v -0.159053 0.189855 0.006525
v -0.159487 0.188806 0.006525
v -0.159053 0.188806 0.007574
v -0.158004 0.188806 0.008008
v -0.158004 0.189855 0.007574
v -0.158004 0.190289 0.006525
v -0.158004 0.169186 0.007574
v -0.158004 0.170235 0.008008
v -0.159053 0.170235 0.007574
v -0.159487 0.170235 0.006525
v -0.159053 0.169186 0.006525
v -0.158004 0.168752 0.006525
v -0.158004 0.169186 -0.006856
v -0.158004 0.168752 -0.005807
v -0.159053 0.169186 -0.005809
v -0.159487 0.170235 -0.005809
v -0.159053 0.170235 -0.006858
v -0.158004 0.170235 -0.007291
v 0.159386 0.189855 0.007541
v 0.159386 0.188806 0.007976
v 0.160435 0.188806 0.007541
v 0.160870 0.188806 0.006492
v 0.160435 0.189855 0.006492
v 0.159386 0.190289 0.006492
v 0.159386 0.189855 -0.006426
v 0.159386 0.190289 -0.005377
v 0.160435 0.189855 -0.005376
v 0.160870 0.188806 -0.005375
v 0.160435 0.188806 -0.006425
v 0.159386 0.188806 -0.006861
v 0.159386 0.169186 0.007541
v 0.159386 0.168752 0.006492
v 0.160435 0.169186 0.006492
v 0.160870 0.170235 0.006492
v 0.160435 0.170235 0.007541
v 0.159386 0.170235 0.007976
v -0.079398 0.190289 0.006517
v -0.079398 0.189855 0.007565
v -0.079398 0.188806 0.008000
v 0.159386 0.169186 -0.006426
v 0.159386 0.170235 -0.006861
v 0.160435 0.170234 -0.006425
v 0.160870 0.170234 -0.005376
v 0.160435 0.169186 -0.005376
v 0.159386 0.168752 -0.005377
v -0.158004 0.189855 -0.006856
v -0.158004 0.188806 -0.007291
v -0.159053 0.188805 -0.006857
v -0.159487 0.188805 -0.005808
v -0.159053 0.189854 -0.005808
v -0.158004 0.190289 -0.005807
v 0.080781 0.190289 -0.005484
v 0.080781 0.189855 -0.006533
v 0.080781 0.188806 -0.006967
v -0.079398 0.168752 0.006517
v -0.079398 0.169186 0.007565
v -0.079398 0.170235 0.008000
v 0.080781 0.170235 -0.006967
v 0.080781 0.169186 -0.006533
v 0.080781 0.168752 -0.005484
v 0.000691 0.188806 0.007992
v 0.000691 0.189855 0.007557
v 0.000691 0.190289 0.006508
v 0.080781 0.190289 0.006500
v 0.080781 0.189855 0.007549
v 0.080781 0.188806 0.007984
v 0.000691 0.188806 -0.007075
v 0.000691 0.189855 -0.006641
v 0.000691 0.190289 -0.005592
v -0.079398 0.190289 -0.005701
v -0.079398 0.189855 -0.006750
v -0.079398 0.188806 -0.007184
v 0.000691 0.168752 -0.005592
v 0.000691 0.169186 -0.006641
v 0.000691 0.170235 -0.007075
v -0.079398 0.170235 -0.007184
v -0.079398 0.169186 -0.006750
v -0.079398 0.168752 -0.005701
v 0.000691 0.168752 0.006508
v 0.000691 0.169186 0.007557
v 0.000691 0.170235 0.007992
v 0.080781 0.168752 0.006500
v 0.080781 0.169186 0.007549
v 0.080781 0.170235 0.007984
v -0.158860 0.189662 0.007381
v -0.158860 0.169379 0.007381
v -0.158860 0.169379 -0.006664
v 0.160242 0.189662 0.007348
v 0.160242 0.189662 -0.006232
v 0.160242 0.169379 0.007348
v 0.160242 0.169379 -0.006232
v -0.158860 0.189662 -0.006664
v -0.158004 0.190289 0.000359
v -0.159053 0.189854 0.000358
v -0.159487 0.188805 0.000358
v -0.159487 0.170235 0.000358
v -0.159053 0.169186 0.000358
v -0.158004 0.168752 0.000359
v -0.079398 0.168752 0.000408
v 0.000691 0.168752 0.000458
v 0.080781 0.168752 0.000508
v 0.159386 0.168752 0.000558
v 0.160435 0.169186 0.000558
v 0.160870 0.170234 0.000558
v 0.160870 0.188806 0.000558
v 0.160435 0.189855 0.000558
v 0.159386 0.190289 0.000558
v 0.080781 0.190289 0.000508
v 0.000691 0.190289 0.000458
v -0.079398 0.190289 0.000408
v 0.160435 0.179520 0.007541
v 0.160870 0.179520 0.006492
v 0.160870 0.179520 0.000558
v 0.160870 0.179520 -0.005376
v 0.160435 0.179520 -0.006425
v 0.159386 0.179520 -0.006861
v 0.080781 0.179520 -0.006967
v 0.000691 0.179520 -0.007075
v -0.079398 0.179520 -0.007184
v -0.158004 0.179520 -0.007291
v -0.159053 0.179520 -0.006857
v -0.159487 0.179520 -0.005809
v -0.159487 0.179520 0.000358
v -0.159487 0.179520 0.006525
v -0.159053 0.179520 0.007574
v -0.158004 0.179520 0.008008
v -0.079398 0.179520 0.008000
v 0.000691 0.179520 0.007992
v 0.080781 0.179520 0.007984
v 0.159386 0.179520 0.007976
vt 0.216980 0.038616
vt 0.213751 0.039296
vt 0.449600 0.020495
vt 0.446291 0.020122
vt 0.210941 0.044757
vt 0.193209 0.044043
vt 0.217422 0.044888
vt 0.217229 0.041764
vt 0.270581 0.040966
vt 0.270471 0.044089
vt 0.270751 0.037827
vt 0.214183 0.044869
vt 0.217330 0.270752
vt 0.214054 0.270797
vt 0.220606 0.270708
vt 0.276947 0.043768
vt 0.276306 0.040542
vt 0.368045 0.040220
vt 0.367726 0.043526
vt 0.390145 0.020975
vt 0.391929 0.044558
vt 0.391757 0.041432
vt 0.445062 0.041104
vt 0.444926 0.044225
vt 0.391524 0.038280
vt 0.445251 0.037967
vt 0.231183 0.963824
vt 0.231363 0.960681
vt 0.284635 0.959898
vt 0.284893 0.963048
vt 0.231484 0.957554
vt 0.284432 0.956771
vt 0.225006 0.957878
vt 0.225651 0.961103
vt 0.474484 0.961372
vt 0.474810 0.958064
vt 0.453020 0.979991
vt 0.457749 0.957196
vt 0.454508 0.957053
vt 0.453298 0.731114
vt 0.456574 0.731102
vt 0.451269 0.957005
vt 0.450022 0.731129
vt 0.451438 0.960143
vt 0.398126 0.960446
vt 0.398268 0.957312
vt 0.451667 0.963308
vt 0.397925 0.963594
vt 0.290914 0.956905
vt 0.287671 0.956791
vt 0.284604 0.730918
vt 0.287880 0.730875
vt 0.281328 0.730961
vt 0.288121 0.962362
vt 0.393467 0.979914
vt 0.396771 0.980303
vt 0.374804 0.958660
vt 0.395029 0.957399
vt 0.393184 0.731567
vt 0.396459 0.731537
vt 0.391787 0.957585
vt 0.389909 0.731600
vt 0.217690 0.501346
vt 0.220958 0.501295
vt 0.224465 0.731847
vt 0.221191 0.731905
vt 0.224226 0.501244
vt 0.227740 0.731790
vt 0.454890 0.500542
vt 0.451622 0.500561
vt 0.450057 0.269972
vt 0.453331 0.269946
vt 0.448353 0.500582
vt 0.446781 0.269999
vt 0.394885 0.500953
vt 0.391617 0.500978
vt 0.389939 0.270427
vt 0.393215 0.270409
vt 0.388348 0.501005
vt 0.386663 0.270447
vt 0.274136 0.269879
vt 0.369077 0.270572
vt 0.280686 0.269766
vt 0.470952 0.269818
vt 0.473825 0.731027
vt 0.472309 0.500445
vt 0.284225 0.500313
vt 0.370929 0.501149
vt 0.372626 0.731771
vt 0.277689 0.500414
vt 0.273708 0.043977
vt 0.277411 0.269822
vt 0.228245 0.957667
vt 0.448165 0.044139
vt 0.451406 0.043961
vt 0.385450 0.044379
vt 0.388691 0.044515
vt 0.280957 0.500363
vt 0.214437 0.042124
vt 0.273374 0.041249
vt 0.388965 0.041777
vt 0.386015 0.041160
vt 0.228574 0.960396
vt 0.454231 0.959796
vt 0.457183 0.960415
vt 0.287423 0.959536
vt 0.394712 0.962951
vt 0.395338 0.960135
vt 0.448471 0.038575
vt 0.447854 0.041404
vt 0.196470 0.271051
vt 0.469051 0.042895
vt 0.200272 0.501617
vt 0.203910 0.732204
vt 0.208033 0.959084
vt 0.226871 0.980159
vt 0.230179 0.980512
vt 0.286299 0.980178
vt 0.307628 0.960894
vt 0.307917 0.957584
vt 0.305161 0.730641
vt 0.301643 0.500044
vt 0.298305 0.269468
vt 0.294582 0.042530
vt 0.275056 0.020838
vt 0.271748 0.020490
vt 0.215575 0.020811
vt 0.193498 0.040734
vt 0.456291 0.979568
vt 0.454899 0.962618
vt 0.375162 0.961935
vt 0.392405 0.960816
vt 0.386875 0.021386
vt 0.388292 0.038960
vt 0.468701 0.039620
vt 0.450795 0.040728
vt 0.290378 0.960128
vt 0.227964 0.963212
vt 0.273972 0.038432
vt 0.211474 0.041533
vt 0.289568 0.979731
vt 0.208420 0.962356
vt 0.294202 0.039258
vt 0.212304 0.021251
vt 0.258015 0.961114
vt 0.258062 0.964437
vt 0.258238 0.981594
vt 0.424898 0.981781
vt 0.424790 0.964370
vt 0.424768 0.961058
vt 0.424743 0.957730
vt 0.423256 0.731315
vt 0.421619 0.500768
vt 0.419983 0.270221
vt 0.418453 0.043804
vt 0.418424 0.040469
vt 0.418397 0.037145
vt 0.243661 0.019423
vt 0.418190 0.019316
vt 0.243841 0.037258
vt 0.243887 0.040584
vt 0.243938 0.043923
vt 0.247371 0.270290
vt 0.250957 0.500831
vt 0.254535 0.731337
vt 0.257965 0.957780
vn -0.997505 0.039986 0.058181
vn -0.924969 0.378080 0.038568
vn -0.923905 0.382621 -0.000020
vn -0.999117 0.042006 -0.000002
vn -0.378182 0.924926 0.038593
vn -0.005189 0.998179 0.060098
vn -0.005481 0.999985 -0.000000
vn -0.382843 0.923813 -0.000010
vn -0.005158 0.041821 0.999112
vn -0.379414 0.026646 0.924843
vn -0.382550 0.000003 0.923935
vn -0.005352 0.000000 0.999986
vn -0.924772 0.026642 0.379588
vn -0.998192 0.000000 0.060107
vn -0.923871 0.000000 0.382705
vn -0.003339 0.924029 0.382307
vn 0.000039 0.923878 0.382688
vn 0.000006 0.998163 0.060592
vn -0.003285 0.382289 0.924037
vn 0.000101 0.042004 0.999117
vn 0.000094 0.382713 0.923867
vn -0.005188 -0.998178 0.060110
vn -0.378179 -0.924927 0.038601
vn -0.382778 -0.923840 0.000000
vn -0.005480 -0.999985 0.000000
vn -0.924956 -0.378112 0.038585
vn -0.997505 -0.039984 0.058180
vn -0.999117 -0.042008 0.000000
vn -0.923864 -0.382721 0.000001
vn -0.004100 0.000000 -0.999992
vn -0.381755 0.000007 -0.924264
vn -0.378710 0.026637 -0.925132
vn -0.003907 0.041807 -0.999118
vn -0.923826 0.000013 -0.382813
vn -0.998192 0.000002 -0.060109
vn -0.997505 0.039978 -0.058190
vn -0.924754 0.026677 -0.379630
vn 0.997393 0.039914 0.060122
vn 0.924752 0.026638 0.379638
vn 0.923857 -0.000002 0.382738
vn 0.998070 -0.000001 0.062102
vn 0.379785 0.026643 0.924691
vn 0.005362 0.041830 0.999110
vn 0.005557 0.000000 0.999985
vn 0.382901 0.000000 0.923789
vn 0.005149 0.998089 0.061585
vn 0.377978 0.924954 0.039922
vn 0.382747 0.923853 0.000000
vn 0.005428 0.999985 0.000000
vn 0.924955 0.377974 0.039924
vn 0.999117 0.042007 -0.000000
vn 0.923854 0.382746 -0.000001
vn 0.005220 0.998093 -0.061506
vn 0.003891 0.924031 -0.382298
vn 0.000518 0.923882 -0.382678
vn 0.000083 0.998102 -0.061582
vn 0.004633 0.382329 -0.924015
vn 0.006611 0.041838 -0.999103
vn 0.001353 0.042000 -0.999117
vn 0.001251 0.382682 -0.923879
vn 0.380477 0.026643 -0.924407
vn 0.383523 0.000007 -0.923531
vn 0.006806 0.000000 -0.999977
vn 0.924921 0.026663 -0.379224
vn 0.997396 0.039924 -0.060066
vn 0.998073 0.000003 -0.062051
vn 0.924000 0.000014 -0.382392
vn 0.005148 -0.998088 0.061592
vn 0.003417 -0.924013 0.382345
vn 0.000039 -0.923862 0.382726
vn 0.000006 -0.998102 0.061589
vn 0.003473 -0.382338 0.924016
vn 0.005362 -0.041830 0.999110
vn 0.000102 -0.042008 0.999117
vn 0.000094 -0.382731 0.923860
vn 0.997393 -0.039915 0.060118
vn 0.924946 -0.377993 0.039953
vn 0.923814 -0.382840 0.000022
vn 0.999117 -0.042009 0.000002
vn 0.377956 -0.924961 0.039945
vn 0.005426 -0.999985 0.000000
vn 0.382652 -0.923893 0.000012
vn 0.006611 -0.041838 -0.999103
vn 0.004629 -0.382314 -0.924021
vn 0.001251 -0.382667 -0.923885
vn 0.001353 -0.042000 -0.999117
vn 0.003888 -0.924016 -0.382335
vn 0.005218 -0.998093 -0.061513
vn 0.000083 -0.998102 -0.061588
vn 0.000519 -0.923868 -0.382710
vn 0.000006 0.998133 0.061084
vn 0.000039 0.923875 0.382695
vn 0.000039 0.923875 0.382694
vn 0.000006 0.998102 0.061583
vn 0.000094 0.382758 0.923849
vn 0.000102 0.042009 0.999117
vn 0.000102 0.042008 0.999117
vn 0.000094 0.382747 0.923853
vn 0.000083 0.998133 -0.061084
vn 0.000518 0.923874 -0.382696
vn 0.000519 0.923868 -0.382710
vn 0.000082 0.998163 -0.060593
vn 0.001251 0.382654 -0.923891
vn 0.001353 0.041996 -0.999117
vn 0.001354 0.041996 -0.999117
vn 0.001252 0.382653 -0.923891
vn 0.001353 -0.041996 -0.999117
vn 0.001251 -0.382641 -0.923896
vn 0.001252 -0.382640 -0.923897
vn 0.001354 -0.041996 -0.999117
vn 0.000518 -0.923863 -0.382723
vn 0.000083 -0.998132 -0.061089
vn 0.000082 -0.998162 -0.060598
vn 0.000519 -0.923857 -0.382738
vn 1.000000 -0.000000 0.000000
vn -1.000000 0.000000 0.000000
vn 0.001355 0.000000 -0.999999
vn 0.000101 -0.000000 1.000000
vn 0.000000 -1.000000 0.000000
vn 0.000006 -0.998162 0.060597
vn 0.000000 1.000000 0.000000
vn 0.000000 1.000000 0.000000
vn 0.000000 1.000000 0.000000
vn 0.001354 0.000000 -0.999999
vn 0.001354 0.000000 -0.999999
vn 0.000006 -0.998132 0.061089
vn 0.000000 -1.000000 0.000000
vn 0.000000 -1.000000 0.000000
vn 0.000102 0.000000 1.000000
vn 0.000102 0.000000 1.000000
vn -0.005158 -0.041822 0.999112
vn -0.003284 -0.382287 0.924038
vn 0.000094 -0.382706 0.923870
vn 0.000101 -0.042004 0.999117
vn -0.003341 -0.924018 0.382335
vn 0.000039 -0.923866 0.382715
vn 0.003473 0.382354 0.924010
vn 0.003417 0.924029 0.382308
vn -0.002128 0.382275 -0.924046
vn -0.002870 0.924022 -0.382328
vn -0.005120 0.998174 -0.060183
vn -0.005119 -0.998174 -0.060187
vn -0.002866 -0.924010 -0.382357
vn -0.002124 -0.382261 -0.924052
vn -0.003906 -0.041807 -0.999118
vn 0.000094 -0.382745 0.923854
vn 0.000102 -0.042009 0.999117
vn 0.000039 -0.923864 0.382722
vn -0.325230 0.887939 0.325254
vn -0.887949 0.325247 0.325210
vn -0.325082 0.325177 0.888021
vn -0.325323 -0.887897 0.325276
vn -0.379461 -0.026635 0.924824
vn -0.325184 -0.325189 0.887979
vn -0.924772 -0.026643 0.379587
vn -0.887950 -0.325241 0.325211
vn -0.378593 -0.026648 -0.925180
vn -0.324328 -0.325386 -0.888220
vn -0.378131 -0.924945 -0.038659
vn -0.324972 -0.887987 -0.325380
vn -0.924940 -0.378151 -0.038573
vn -0.997505 -0.039980 -0.058189
vn -0.924701 -0.026635 -0.379761
vn -0.887803 -0.325394 -0.325462
vn 0.325294 0.887927 0.325221
vn 0.325425 0.325222 0.887879
vn 0.887930 0.325242 0.325265
vn 0.326271 0.325227 -0.887567
vn 0.378027 0.924936 -0.039870
vn 0.325659 0.887809 -0.325179
vn 0.924959 0.377965 -0.039930
vn 0.888023 0.325292 -0.324963
vn 0.379787 -0.026641 0.924690
vn 0.325440 -0.325209 0.887878
vn 0.325348 -0.887885 0.325283
vn 0.924765 -0.026639 0.379606
vn 0.887954 -0.325195 0.325247
vn 0.377850 -0.925007 -0.039890
vn 0.325353 -0.887875 -0.325306
vn 0.380356 -0.026647 -0.924456
vn 0.325957 -0.325301 -0.887655
vn 0.924866 -0.026627 -0.379361
vn 0.997396 -0.039923 -0.060066
vn 0.924887 -0.378144 -0.039893
vn 0.887840 -0.325533 -0.325220
vn -0.378264 0.924891 -0.038635
vn -0.325252 0.887943 -0.325220
vn -0.324590 0.325257 -0.888172
vn -0.925013 0.377971 -0.038597
vn -0.887987 0.325178 -0.325176
s 1
g pPlane13
usemtl aiStandardSurface4SG
f 2/1/1 1/2/2 94/144/3 95/127/4
s 2
f 1/140/5 6/5/6 93/6/7 94/128/8
s 3
f 4/7/9 3/8/10 125/161/11 126/162/12
s 1
f 3/8/13 2/1/1 124/160/14 125/161/15
s 2
f 6/5/6 5/12/16 38/13/17 37/14/18
s 3
f 5/12/19 4/7/9 39/15/20 38/13/21
s 4
f 12/16/22 11/17/23 97/143/24 98/124/25
s 1
f 11/139/26 10/11/27 96/126/28 97/125/29
s 6
f 120/155/30 121/156/31 48/23/32 47/24/33
s 1
f 121/156/34 122/157/35 49/26/36 48/23/37
s 8
f 22/27/38 21/28/39 111/145/40 112/146/41
s 3
f 21/28/42 20/31/43 130/166/44 111/145/45
s 2
f 24/33/46 23/34/47 106/142/48 107/115/49
s 8
f 23/138/50 22/27/38 105/117/51 106/116/52
s 2
f 26/38/53 25/39/54 53/40/55 52/41/56
s 6
f 25/39/57 30/42/58 54/43/59 53/40/60
f 30/42/58 29/44/61 115/150/62 116/151/63
s 8
f 29/44/64 28/47/65 114/149/66 115/150/67
s 4
f 32/49/68 31/50/69 83/51/70 82/52/71
s 3
f 31/50/72 36/32/73 84/53/74 83/51/75
s 8
f 34/30/76 33/54/77 103/141/78 104/118/79
s 4
f 33/137/80 32/49/68 102/120/81 103/119/82
s 6
f 41/46/83 40/58/84 59/59/85 58/60/86
s 4
f 40/58/87 45/61/88 60/62/89 59/59/90
s 2
f 63/63/91 62/64/92 65/65/93 64/66/94
s 3
f 62/64/95 61/67/96 66/68/97 65/65/98
s 2
f 69/69/99 68/70/100 71/71/101 70/72/102
s 6
f 68/70/103 67/73/104 72/74/105 71/71/106
f 75/75/107 74/76/108 77/77/109 76/78/110
s 4
f 74/76/111 73/79/112 78/80/113 77/77/114
s 8
f 112/146/41 113/147/115 105/117/51 22/27/38
s 1
f 2/1/1 95/127/4 123/158/116 124/160/14
s 6
f 120/155/30 47/24/33 72/74/105 119/154/117
s 3
f 4/7/9 126/162/12 127/163/118 39/15/20
s 4
f 98/124/25 99/123/119 55/83/120 12/16/22
s 2
f 6/5/6 37/14/18 110/111/121 93/6/7
f 63/63/91 64/66/94 108/114/122 109/113/123
s 6
f 118/153/124 67/73/104 54/43/59 117/152/125
s 4
f 79/87/126 100/122/127 101/121/128 82/52/71
s 3
f 61/67/96 128/164/129 129/165/130 66/68/97
s 2
f 37/14/18 63/63/91 109/113/123 110/111/121
s 6
f 119/154/117 72/74/105 67/73/104 118/153/124
s 4
f 55/83/120 99/123/119 100/122/127 79/87/126
s 3
f 39/15/20 127/163/118 128/164/129 61/67/96
s 2
f 64/66/94 24/33/46 107/115/49 108/114/122
s 6
f 117/152/125 54/43/59 30/42/58 116/151/63
s 4
f 82/52/71 101/121/128 102/120/81 32/49/68
s 3
f 66/68/97 129/165/130 130/166/44 20/31/43
f 8/10/131 7/91/132 56/92/133 57/81/134
s 4
f 7/91/135 12/16/22 55/83/120 56/92/136
s 2
f 37/14/18 38/13/17 62/64/92 63/63/91
s 3
f 38/13/21 39/15/20 61/67/96 62/64/95
f 20/31/43 19/93/137 65/65/98 66/68/97
s 2
f 19/93/138 24/33/46 64/66/94 65/65/93
f 52/41/56 53/40/55 68/70/100 69/69/99
s 6
f 53/40/60 54/43/59 67/73/104 68/70/103
f 47/24/33 46/94/139 71/71/106 72/74/105
s 2
f 46/94/140 51/95/141 70/72/102 71/71/101
s 6
f 58/60/86 59/59/85 74/76/108 75/75/107
s 4
f 59/59/90 60/62/89 73/79/112 74/76/111
f 14/96/142 13/97/143 77/77/114 78/80/113
s 6
f 13/97/144 18/21/145 76/78/110 77/77/109
s 3
f 57/81/134 56/92/133 80/98/146 81/90/147
s 4
f 56/92/136 55/83/120 79/87/126 80/98/148
s 3
f 81/90/147 80/98/146 83/51/75 84/53/74
s 4
f 80/98/148 79/87/126 82/52/71 83/51/70
s 2
f 5/12/16 6/5/6 1/140/5 85/99/149
s 1
f 1/2/2 2/1/1 3/8/13 85/99/150
s 3
f 3/8/10 4/7/9 5/12/19 85/99/151
s 4
f 11/17/23 12/16/22 7/91/135 86/100/152
s 3
f 7/91/132 8/10/131 9/9/153 86/100/154
s 1
f 9/9/155 10/11/27 11/139/26 86/100/156
s 6
f 17/22/157 18/21/145 13/97/144 87/101/158
s 4
f 13/97/143 14/96/142 15/102/159 87/101/160
s 1
f 15/134/161 16/25/162 17/22/163 87/101/164
s 2
f 23/34/47 24/33/46 19/93/138 88/103/165
s 3
f 19/93/137 20/31/43 21/28/42 88/103/166
s 8
f 21/28/39 22/27/38 23/138/50 88/103/167
s 6
f 29/44/61 30/42/58 25/39/57 89/104/168
s 2
f 25/39/54 26/38/53 27/105/169 89/104/170
s 8
f 27/130/171 28/47/65 29/44/64 89/104/172
s 3
f 35/29/173 36/32/73 31/50/72 90/106/174
s 4
f 31/50/69 32/49/68 33/137/80 90/106/175
s 8
f 33/54/77 34/30/76 35/29/176 90/106/177
s 4
f 44/132/178 45/61/88 40/58/87 91/108/179
s 6
f 40/58/84 41/46/83 42/45/180 91/108/181
s 8
f 42/45/182 43/48/183 44/107/184 91/108/185
s 2
f 50/136/186 51/95/141 46/94/140 92/110/187
s 6
f 46/94/139 47/24/33 48/23/32 92/110/188
s 1
f 48/23/37 49/26/36 50/109/189 92/110/190
s 2
f 94/135/8 93/112/7 51/95/141 50/136/186
s 1
f 95/4/4 94/3/3 50/109/189 49/26/36
f 123/159/116 95/4/4 49/26/36 122/157/35
f 97/133/29 96/20/28 16/25/162 15/134/161
s 4
f 98/19/25 97/18/24 15/102/159 14/96/142
f 14/96/142 78/80/113 99/82/119 98/19/25
f 100/88/127 99/82/119 78/80/113 73/79/112
f 101/89/128 100/88/127 73/79/112 60/62/89
f 102/57/81 101/89/128 60/62/89 45/61/88
f 103/131/82 102/57/81 45/61/88 44/132/178
s 8
f 104/56/79 103/55/78 44/107/184 43/48/183
f 105/37/51 113/148/115 114/149/66 28/47/65
f 106/129/52 105/37/51 28/47/65 27/130/171
s 2
f 107/36/49 106/35/48 27/105/169 26/38/53
f 108/85/122 107/36/49 26/38/53 52/41/56
f 109/86/123 108/85/122 52/41/56 69/69/99
f 110/84/121 109/86/123 69/69/99 70/72/102
f 93/112/7 110/84/121 70/72/102 51/95/141
s 8
f 112/146/41 111/145/40 35/29/176 34/30/76
f 34/30/76 104/118/79 113/147/115 112/146/41
f 114/149/66 113/148/115 104/56/79 43/48/183
f 115/150/67 114/149/66 43/48/183 42/45/182
s 6
f 116/151/63 115/150/62 42/45/180 41/46/83
f 58/60/86 117/152/125 116/151/63 41/46/83
f 75/75/107 118/153/124 117/152/125 58/60/86
f 76/78/110 119/154/117 118/153/124 75/75/107
f 18/21/145 120/155/30 119/154/117 76/78/110
f 18/21/145 17/22/157 121/156/31 120/155/30
s 1
f 17/22/163 16/25/162 122/157/35 121/156/34
f 96/20/28 123/159/116 122/157/35 16/25/162
f 124/160/14 123/158/116 96/126/28 10/11/27
f 125/161/15 124/160/14 10/11/27 9/9/155
s 3
f 126/162/12 125/161/11 9/9/153 8/10/131
f 127/163/118 126/162/12 8/10/131 57/81/134
f 128/164/129 127/163/118 57/81/134 81/90/147
f 129/165/130 128/164/129 81/90/147 84/53/74
f 130/166/44 129/165/130 84/53/74 36/32/73
f 111/145/45 130/166/44 36/32/73 35/29/173
