# This file uses centimeters as units for non-parametric coordinates.

mtllib floor.mtl
g default
v 0.126940 0.281583 1.722180
v 0.126940 0.273483 1.741740
v 0.126940 0.253963 1.749820
v 3.210600 0.252803 1.741740
v 3.218680 0.252783 1.722180
v 3.210600 0.272323 1.722200
v 3.191060 0.280423 1.722200
v 3.191060 0.272323 1.741740
v 3.191060 0.252803 1.749820
v 0.126940 0.281583 -1.722200
v 0.126940 0.273483 -1.741740
v 0.126940 0.253963 -1.749820
v -3.210580 0.252803 -1.741740
v -3.218680 0.252783 -1.722200
v -3.210580 0.272323 -1.722220
v -3.191060 0.280423 -1.722220
v -3.191060 0.272323 -1.741740
v -3.191060 0.252803 -1.749820
v 3.210600 0.252803 -1.741740
v 3.191060 0.252803 -1.749820
v 3.191060 0.272323 -1.741740
v 3.191060 0.280423 -1.722200
v 3.210600 0.272323 -1.722200
v 3.218680 0.252783 -1.722200
v -3.210580 0.252803 1.741740
v -3.191060 0.252803 1.749820
v -3.191060 0.272323 1.741740
v -3.191060 0.280423 1.722180
v -3.210580 0.272323 1.722200
v -3.218680 0.252783 1.722180
v -3.210580 0.095143 1.722180
v -3.191040 0.087063 1.722180
v -3.191040 0.095163 1.741740
v -3.191060 0.114683 1.749820
v -3.210580 0.114663 1.741740
v -3.218680 0.114663 1.722180
v 3.191060 0.104303 1.741740
v 3.191060 0.096223 1.722180
v 3.210600 0.104323 1.722200
v 3.218680 0.123863 1.722240
v 3.210600 0.123863 1.741740
v 3.191060 0.123843 1.749820
v 3.191060 0.104303 -1.741740
v 3.191060 0.123843 -1.749820
v 3.210600 0.123863 -1.741740
v 3.218680 0.123883 -1.722200
v 3.210600 0.104343 -1.722200
v 3.191060 0.096223 -1.722200
v 0.126960 0.118083 1.749820
v 0.126960 0.098563 1.741740
v 0.126960 0.090463 1.722180
v -3.191060 0.095163 -1.741740
v -3.191060 0.087063 -1.722200
v -3.210580 0.095143 -1.722200
v -3.218680 0.114683 -1.722200
v -3.210580 0.114683 -1.741740
v -3.191060 0.114683 -1.749820
v 0.126960 0.090463 -1.722200
v 0.126960 0.098563 -1.741740
v 0.126960 0.118083 -1.749820
v 3.207000 0.268743 1.738140
v -3.207000 0.268743 -1.738140
v 3.207000 0.268743 -1.738140
v -3.207000 0.268743 1.738120
v -3.206980 0.098723 1.738120
v 3.207000 0.107923 1.738140
v 3.207000 0.107923 -1.738140
v -3.207000 0.098743 -1.738140
v 3.210600 0.188643 1.741740
v 3.218680 0.188643 1.722200
v 3.218680 0.188663 -1.722200
v 3.210600 0.188663 -1.741740
v 3.191060 0.188643 -1.749820
v 0.126960 0.186363 -1.749820
v -3.191060 0.184103 -1.749820
v -3.210580 0.184083 -1.741740
v -3.218680 0.184083 -1.722200
v -3.218680 0.184083 1.722180
v -3.210580 0.184083 1.741740
v -3.191060 0.184083 1.749820
v 0.126960 0.186363 1.749820
v 3.191060 0.188643 1.749820
v 3.210600 0.272323 -0.014600
v 3.191060 0.280423 -0.014600
v 0.126940 0.281583 -0.014620
v -3.191060 0.280423 -0.014620
v -3.210580 0.272323 -0.014620
v -3.218680 0.252783 -0.014620
v -3.218680 0.184083 -0.014620
v -3.218680 0.114683 -0.014620
v -3.210580 0.095143 -0.014620
v -3.191040 0.087063 -0.014620
v 0.126960 0.090463 -0.014620
v 3.191060 0.096223 -0.014620
v 3.210600 0.104343 -0.014600
v 3.218680 0.123883 -0.014600
v 3.218680 0.188663 -0.014600
v 3.218680 0.252783 -0.014620
vt 0.032310 0.476083
vt 0.034999 0.476094
vt 0.033604 0.897199
vt 0.030933 0.897372
vt 0.037690 0.476105
vt 0.036276 0.897110
vt 0.039288 0.082504
vt 0.036636 0.083094
vt 0.035882 0.074780
vt 0.038577 0.074396
vt 0.034864 0.084884
vt 0.034283 0.087513
vt 0.026168 0.086834
vt 0.026551 0.084101
vt 0.039621 0.087827
vt 0.039494 0.085165
vt 0.260347 0.084378
vt 0.260330 0.087074
vt 0.260364 0.081683
vt 0.480890 0.479177
vt 0.478201 0.479163
vt 0.480143 0.090385
vt 0.482814 0.090217
vt 0.475510 0.479149
vt 0.477471 0.090470
vt 0.472527 0.902146
vt 0.475176 0.901550
vt 0.476024 0.910438
vt 0.473331 0.910830
vt 0.476931 0.899762
vt 0.477504 0.897131
vt 0.486185 0.897851
vt 0.485812 0.900580
vt 0.257083 0.900150
vt 0.257075 0.902846
vt 0.036121 0.899769
vt 0.257066 0.905541
vt 0.035887 0.902426
vt 0.482258 0.087558
vt 0.490583 0.086918
vt 0.490935 0.089620
vt 0.480493 0.085772
vt 0.477872 0.085154
vt 0.478670 0.077078
vt 0.481396 0.077493
vt 0.031491 0.900029
vt 0.022595 0.900718
vt 0.022247 0.898019
vt 0.033263 0.901820
vt 0.035056 0.911082
vt 0.032332 0.910676
vt 0.523228 0.085543
vt 0.523085 0.082882
vt 0.744246 0.080543
vt 0.744243 0.083240
vt 0.522862 0.080222
vt 0.744250 0.077848
vt 0.517885 0.085267
vt 0.520555 0.085446
vt 0.519921 0.506574
vt 0.517232 0.506582
vt 0.522612 0.506568
vt 0.524410 0.898018
vt 0.524644 0.895359
vt 0.743363 0.899759
vt 0.743358 0.902452
vt 0.524798 0.892695
vt 0.743368 0.897063
vt 0.961579 0.086064
vt 0.964252 0.085975
vt 0.963972 0.506951
vt 0.961281 0.506940
vt 0.966923 0.085804
vt 0.966661 0.506964
vt 0.023719 0.476049
vt 0.257953 0.476762
vt 0.743838 0.504941
vt 0.257041 0.914278
vt 0.260414 0.073527
vt 0.489481 0.479224
vt 0.036951 0.087712
vt 0.474836 0.896934
vt 0.472164 0.896822
vt 0.522126 0.892803
vt 0.519456 0.892998
vt 0.963683 0.893574
vt 0.961015 0.893374
vt 0.958343 0.893262
vt 0.037215 0.085439
vt 0.474581 0.899206
vt 0.472306 0.899485
vt 0.477631 0.087811
vt 0.479902 0.088107
vt 0.033848 0.899477
vt 0.520212 0.080825
vt 0.520804 0.083170
vt 0.518443 0.082633
vt 0.520035 0.895651
vt 0.522377 0.895077
vt 0.521789 0.897416
vt 0.958487 0.895927
vt 0.960761 0.895650
vt 0.963103 0.896226
vt 0.961358 0.897990
vt 0.958711 0.898591
vt 0.966367 0.083146
vt 0.964006 0.083696
vt 0.961730 0.083406
vt 0.961962 0.080749
vt 0.964587 0.081354
vt 0.523634 0.906185
vt 0.520909 0.905781
vt 0.743347 0.910700
vt 0.962162 0.906365
vt 0.959468 0.906757
vt 0.971881 0.894276
vt 0.971500 0.896973
vt 0.975339 0.507008
vt 0.975698 0.085162
vt 0.975353 0.082462
vt 0.962797 0.072006
vt 0.965522 0.072410
vt 0.522051 0.071476
vt 0.744262 0.069007
vt 0.519357 0.071867
vt 0.509099 0.084603
vt 0.509456 0.081872
vt 0.508554 0.506611
vt 0.511268 0.893683
vt 0.511643 0.896381
vn 0.000000 0.093039 0.995662
vn 0.000000 0.382684 0.923879
vn -0.001632 0.382540 0.923938
vn -0.002275 0.091676 0.995786
vn 0.000000 0.923875 0.382695
vn 0.000000 0.999989 0.004605
vn -0.002765 0.999986 0.004597
vn -0.001823 0.923942 0.382528
vn 0.995382 0.095904 0.004217
vn 0.924877 0.063407 0.374942
vn 0.923797 0.000052 0.382883
vn 0.999989 -0.000007 0.004607
vn 0.374801 0.063350 0.924938
vn 0.002388 0.094088 0.995561
vn 0.002553 -0.000007 0.999997
vn 0.382533 0.000021 0.923942
vn 0.002992 0.999985 0.004595
vn 0.382680 0.923877 0.002851
vn 0.383001 0.923748 0.000000
vn 0.003002 0.999996 0.000000
vn 0.924047 0.382269 0.002853
vn 0.995382 0.095904 0.004217
vn 0.995359 0.096230 0.000000
vn 0.923906 0.382619 0.000000
vn 0.000000 0.093044 -0.995662
vn 0.000000 0.382683 -0.923880
vn 0.001767 0.382514 -0.923948
vn 0.002389 0.094104 -0.995560
vn 0.000000 0.923871 -0.382705
vn 0.000000 0.999989 -0.004683
vn 0.002992 0.999985 -0.004674
vn 0.001973 0.923952 -0.382504
vn -0.995842 0.090992 -0.004311
vn -0.924980 0.059877 -0.375270
vn -0.923909 -0.000027 -0.382613
vn -0.999989 0.000000 -0.004684
vn -0.375346 0.059868 -0.924949
vn -0.002275 0.091676 -0.995786
vn -0.002444 0.000000 -0.999997
vn -0.382760 -0.000010 -0.923848
vn -0.002774 0.999996 0.000000
vn -0.382967 0.923762 0.000000
vn -0.382628 0.923898 0.002853
vn -0.002765 0.999986 0.004597
vn -0.923910 0.382609 0.000000
vn -0.995825 0.091281 0.000000
vn -0.995842 0.090999 0.004239
vn -0.924030 0.382309 0.002852
vn 0.002389 0.094104 -0.995560
vn 0.374877 0.063356 -0.924907
vn 0.382716 0.000002 -0.923866
vn 0.002555 0.000000 -0.999997
vn 0.924909 0.063382 -0.374867
vn 0.995378 0.095938 -0.004290
vn 0.999989 0.000008 -0.004684
vn 0.923859 0.000000 -0.382733
vn -0.002275 0.091676 0.995786
vn -0.375373 0.059886 0.924937
vn -0.382781 -0.000011 0.923839
vn -0.002444 -0.000003 0.999997
vn -0.924979 0.059899 0.375267
vn -0.995842 0.090999 0.004239
vn -0.999989 -0.000004 0.004606
vn -0.923910 -0.000023 0.382609
vn -0.001391 -0.999988 0.004595
vn -0.381676 -0.924292 0.002852
vn -0.382039 -0.924146 0.000000
vn -0.001401 -0.999999 -0.000001
vn -0.923947 -0.382510 0.002852
vn -0.995903 -0.090325 0.004241
vn -0.995886 -0.090613 0.000000
vn -0.923832 -0.382799 0.000000
vn -0.002154 -0.091094 0.995840
vn -0.001109 -0.382598 0.923914
vn 0.000549 -0.382735 0.923858
vn 0.000132 -0.092343 0.995727
vn -0.000554 -0.923991 0.382415
vn -0.001391 -0.999988 0.004595
vn 0.001433 -0.999988 0.004605
vn 0.001324 -0.923895 0.382644
vn 0.995456 -0.095134 0.004222
vn 0.924098 -0.382144 0.002849
vn 0.924009 -0.382371 -0.000002
vn 0.995435 -0.095441 0.000000
vn 0.383441 -0.923561 0.002852
vn 0.004487 -0.999979 0.004598
vn 0.004497 -0.999990 0.000000
vn 0.383831 -0.923403 -0.000001
vn -0.001391 -0.999988 -0.004673
vn -0.000553 -0.923948 -0.382517
vn 0.001324 -0.923874 -0.382694
vn 0.001433 -0.999988 -0.004684
vn -0.001110 -0.382507 -0.923952
vn -0.002154 -0.091082 -0.995841
vn 0.000132 -0.092325 -0.995729
vn 0.000548 -0.382675 -0.923883
vn 0.000000 0.093039 0.995662
vn -0.002275 0.091676 0.995786
vn -0.002444 -0.000003 0.999997
vn 0.000000 -0.000005 1.000000
vn 0.000000 1.000000 0.000000
vn -0.002774 0.999996 0.000000
vn -0.002765 0.999986 0.004597
vn 0.000000 0.999989 0.004605
vn -0.001391 -0.999988 0.004595
vn -0.001401 -0.999999 -0.000001
vn 0.001433 -0.999999 0.000000
vn 0.001433 -0.999988 0.004605
vn 0.002388 0.094088 0.995561
vn 0.000000 0.093039 0.995662
vn 0.000000 -0.000005 1.000000
vn 0.002553 -0.000007 0.999997
vn 0.002992 0.999985 0.004595
vn 0.003002 0.999996 0.000000
vn 0.000000 1.000000 0.000000
vn 0.000000 0.999989 0.004605
vn 0.001433 -0.999988 0.004605
vn 0.001433 -0.999999 0.000000
vn 0.004497 -0.999990 0.000000
vn 0.004487 -0.999979 0.004598
vn -0.995825 0.091281 0.000000
vn -1.000000 -0.000002 0.000000
vn -0.999989 -0.000004 0.004606
vn -0.995842 0.090999 0.004239
vn 0.995382 0.095904 0.004217
vn 0.999989 -0.000007 0.004607
vn 1.000000 0.000000 0.000000
vn 0.995359 0.096230 0.000000
vn 0.000000 0.093044 -0.995662
vn 0.000000 0.000000 -1.000000
vn -0.002444 0.000000 -0.999997
vn -0.002275 0.091676 -0.995786
vn 0.002389 0.094104 -0.995560
vn 0.002555 0.000000 -0.999997
vn 0.000000 0.000000 -1.000000
vn 0.000000 0.093044 -0.995662
vn 0.000000 0.999989 0.004605
vn 0.000000 0.923875 0.382695
vn 0.001972 0.923948 0.382512
vn 0.002992 0.999985 0.004595
vn 0.000000 0.382684 0.923879
vn 0.000000 0.093039 0.995662
vn 0.002388 0.094088 0.995561
vn 0.001767 0.382478 0.923963
vn 0.000000 0.999989 -0.004683
vn 0.000000 0.923871 -0.382705
vn -0.001822 0.923931 -0.382554
vn -0.002764 0.999985 -0.004674
vn 0.000000 0.382683 -0.923880
vn 0.000000 0.093044 -0.995662
vn -0.002275 0.091676 -0.995786
vn -0.001632 0.382503 -0.923953
vn 0.004487 -0.999979 0.004598
vn 0.003354 -0.923937 0.382529
vn 0.001324 -0.923895 0.382644
vn 0.001433 -0.999988 0.004605
vn 0.002334 -0.382520 0.923944
vn 0.002525 -0.093251 0.995639
vn 0.000132 -0.092343 0.995727
vn 0.000549 -0.382735 0.923858
vn 0.002527 -0.093244 -0.995640
vn 0.002336 -0.382493 -0.923956
vn 0.000548 -0.382675 -0.923883
vn 0.000132 -0.092325 -0.995729
vn 0.003356 -0.923941 -0.382521
vn 0.004487 -0.999979 -0.004676
vn 0.001433 -0.999988 -0.004684
vn 0.001324 -0.923874 -0.382694
vn 0.001767 0.382478 0.923963
vn 0.002388 0.094088 0.995561
vn 0.374801 0.063350 0.924938
vn 0.325435 0.325161 0.887898
vn 0.924877 0.063407 0.374942
vn 0.995382 0.095904 0.004217
vn 0.924047 0.382269 0.002853
vn 0.887972 0.325074 0.325319
vn 0.382680 0.923877 0.002851
vn 0.002992 0.999985 0.004595
vn 0.001972 0.923948 0.382512
vn 0.325634 0.887771 0.325309
vn -0.001632 0.382503 -0.923953
vn -0.002275 0.091676 -0.995786
vn -0.375346 0.059868 -0.924949
vn -0.325393 0.325162 -0.887913
vn -0.924980 0.059877 -0.375270
vn -0.995842 0.090992 -0.004311
vn -0.924049 0.382263 -0.002900
vn -0.887967 0.325145 -0.325263
vn -0.382661 0.923884 -0.002900
vn -0.002764 0.999985 -0.004674
vn -0.001822 0.923931 -0.382554
vn -0.325584 0.887789 -0.325310
vn 0.924025 0.382322 -0.002901
vn 0.995378 0.095938 -0.004290
vn 0.924909 0.063382 -0.374867
vn 0.887960 0.325159 -0.325267
vn 0.374877 0.063356 -0.924907
vn 0.002389 0.094104 -0.995560
vn 0.001767 0.382514 -0.923948
vn 0.325391 0.325259 -0.887878
vn 0.001973 0.923952 -0.382504
vn 0.002992 0.999985 -0.004674
vn 0.382679 0.923877 -0.002901
vn 0.325571 0.887827 -0.325217
vn -0.924030 0.382309 0.002852
vn -0.995842 0.090999 0.004239
vn -0.924979 0.059899 0.375267
vn -0.887924 0.325248 0.325277
vn -0.375373 0.059886 0.924937
vn -0.002275 0.091676 0.995786
vn -0.001632 0.382540 0.923938
vn -0.325376 0.325277 0.887877
vn -0.001823 0.923942 0.382528
vn -0.002765 0.999986 0.004597
vn -0.382628 0.923898 0.002853
vn -0.325509 0.887837 0.325254
vn -0.925013 -0.059473 0.375253
vn -0.995903 -0.090325 0.004241
vn -0.923947 -0.382510 0.002852
vn -0.887906 -0.325468 0.325105
vn -0.381676 -0.924292 0.002852
vn -0.001391 -0.999988 0.004595
vn -0.000554 -0.923991 0.382415
vn -0.324598 -0.888225 0.325103
vn -0.001109 -0.382598 0.923914
vn -0.002154 -0.091094 0.995840
vn -0.375464 -0.059515 0.924924
vn -0.325192 -0.325499 0.887863
vn 0.374742 -0.062769 0.925002
vn 0.002525 -0.093251 0.995639
vn 0.002334 -0.382520 0.923944
vn 0.325336 -0.325280 0.887890
vn 0.003354 -0.923937 0.382529
vn 0.004487 -0.999979 0.004598
vn 0.383441 -0.923561 0.002852
vn 0.326171 -0.887607 0.325218
vn 0.924098 -0.382144 0.002849
vn 0.995456 -0.095134 0.004222
vn 0.924827 -0.062806 0.375168
vn 0.887852 -0.325186 0.325536
vn 0.383578 -0.923504 -0.002900
vn 0.004487 -0.999979 -0.004676
vn 0.003356 -0.923941 -0.382521
vn 0.326611 -0.887470 -0.325150
vn 0.002336 -0.382493 -0.923956
vn 0.002527 -0.093244 -0.995640
vn 0.375052 -0.062742 -0.924878
vn 0.325830 -0.325165 -0.887751
vn 0.924926 -0.062871 -0.374912
vn 0.995456 -0.095122 -0.004294
vn 0.924178 -0.381952 -0.002903
vn 0.888084 -0.324864 -0.325222
vn -0.375466 -0.059462 -0.924927
vn -0.002154 -0.091082 -0.995841
vn -0.001110 -0.382507 -0.923952
vn -0.325260 -0.325256 -0.887927
vn -0.000553 -0.923948 -0.382517
vn -0.001391 -0.999988 -0.004673
vn -0.381758 -0.924258 -0.002900
vn -0.324781 -0.888090 -0.325290
vn -0.923975 -0.382441 -0.002901
vn -0.995904 -0.090319 -0.004313
vn -0.925013 -0.059433 -0.375259
vn -0.887971 -0.325231 -0.325165
vn 0.999989 -0.000007 0.004607
vn 0.923797 0.000052 0.382883
vn 0.924827 -0.062806 0.375168
vn 0.995456 -0.095134 0.004222
vn 0.995435 -0.095441 0.000000
vn 1.000000 0.000000 0.000000
vn 0.999989 -0.000007 0.004607
vn 0.995456 -0.095134 0.004222
vn 0.923859 0.000000 -0.382733
vn 0.999989 0.000008 -0.004684
vn 0.995456 -0.095122 -0.004294
vn 0.924926 -0.062871 -0.374912
vn 0.002555 0.000000 -0.999997
vn 0.382716 0.000002 -0.923866
vn 0.375052 -0.062742 -0.924878
vn 0.002527 -0.093244 -0.995640
vn 0.000000 0.000000 -1.000000
vn 0.002555 0.000000 -0.999997
vn 0.002527 -0.093244 -0.995640
vn 0.000132 -0.092325 -0.995729
vn -0.002444 0.000000 -0.999997
vn 0.000000 0.000000 -1.000000
vn 0.000132 -0.092325 -0.995729
vn -0.002154 -0.091082 -0.995841
vn -0.382760 -0.000010 -0.923848
vn -0.002444 0.000000 -0.999997
vn -0.002154 -0.091082 -0.995841
vn -0.375466 -0.059462 -0.924927
vn -0.999989 0.000000 -0.004684
vn -0.923909 -0.000027 -0.382613
vn -0.925013 -0.059433 -0.375259
vn -0.995904 -0.090319 -0.004313
vn -0.999989 -0.000004 0.004606
vn -1.000000 -0.000002 0.000000
vn -0.995886 -0.090613 0.000000
vn -0.995903 -0.090325 0.004241
vn -0.923910 -0.000023 0.382609
vn -0.999989 -0.000004 0.004606
vn -0.995903 -0.090325 0.004241
vn -0.925013 -0.059473 0.375253
vn -0.002444 -0.000003 0.999997
vn -0.382781 -0.000011 0.923839
vn -0.375464 -0.059515 0.924924
vn -0.002154 -0.091094 0.995840
vn 0.000000 -0.000005 1.000000
vn -0.002444 -0.000003 0.999997
vn -0.002154 -0.091094 0.995840
vn 0.000132 -0.092343 0.995727
vn 0.002553 -0.000007 0.999997
vn 0.000000 -0.000005 1.000000
vn 0.000132 -0.092343 0.995727
vn 0.002525 -0.093251 0.995639
vn 0.382533 0.000021 0.923942
vn 0.002553 -0.000007 0.999997
vn 0.002525 -0.093251 0.995639
vn 0.374742 -0.062769 0.925002
vn 0.003002 0.999996 0.000000
vn 0.383001 0.923748 0.000000
vn 0.382679 0.923877 -0.002901
vn 0.002992 0.999985 -0.004674
vn 0.000000 1.000000 0.000000
vn 0.003002 0.999996 0.000000
vn 0.002992 0.999985 -0.004674
vn 0.000000 0.999989 -0.004683
vn 0.000000 0.999989 -0.004683
vn -0.002764 0.999985 -0.004674
vn -0.002774 0.999996 0.000000
vn 0.000000 1.000000 0.000000
vn -0.002764 0.999985 -0.004674
vn -0.382661 0.923884 -0.002900
vn -0.382967 0.923762 0.000000
vn -0.002774 0.999996 0.000000
vn -0.924049 0.382263 -0.002900
vn -0.995842 0.090992 -0.004311
vn -0.995825 0.091281 0.000000
vn -0.923910 0.382609 0.000000
vn -0.995842 0.090992 -0.004311
vn -0.999989 0.000000 -0.004684
vn -1.000000 -0.000002 0.000000
vn -0.995825 0.091281 0.000000
vn -0.995886 -0.090613 0.000000
vn -1.000000 -0.000002 0.000000
vn -0.999989 0.000000 -0.004684
vn -0.995904 -0.090319 -0.004313
vn -0.923832 -0.382799 0.000000
vn -0.995886 -0.090613 0.000000
vn -0.995904 -0.090319 -0.004313
vn -0.923975 -0.382441 -0.002901
vn -0.001401 -0.999999 -0.000001
vn -0.382039 -0.924146 0.000000
vn -0.381758 -0.924258 -0.002900
vn -0.001391 -0.999988 -0.004673
vn 0.001433 -0.999999 0.000000
vn -0.001401 -0.999999 -0.000001
vn -0.001391 -0.999988 -0.004673
vn 0.001433 -0.999988 -0.004684
vn 0.004497 -0.999990 0.000000
vn 0.001433 -0.999999 0.000000
vn 0.001433 -0.999988 -0.004684
vn 0.004487 -0.999979 -0.004676
vn 0.383831 -0.923403 -0.000001
vn 0.004497 -0.999990 0.000000
vn 0.004487 -0.999979 -0.004676
vn 0.383578 -0.923504 -0.002900
vn 0.995435 -0.095441 0.000000
vn 0.924009 -0.382371 -0.000002
vn 0.924178 -0.381952 -0.002903
vn 0.995456 -0.095122 -0.004294
vn 0.999989 0.000008 -0.004684
vn 1.000000 0.000000 0.000000
vn 0.995435 -0.095441 0.000000
vn 0.995456 -0.095122 -0.004294
vn 0.995359 0.096230 0.000000
vn 1.000000 0.000000 0.000000
vn 0.999989 0.000008 -0.004684
vn 0.995378 0.095938 -0.004290
vn 0.923906 0.382619 0.000000
vn 0.995359 0.096230 0.000000
vn 0.995378 0.095938 -0.004290
vn 0.924025 0.382322 -0.002901
s off
g floor:pPlane16
usemtl aiStandardSurface1SG
f 3/1/1 2/2/2 27/3/3 26/4/4
f 2/2/5 1/5/6 28/6/7 27/3/8
f 5/7/9 4/8/10 69/9/11 70/10/12
f 4/11/13 9/12/14 82/13/15 69/14/16
f 7/15/17 6/16/18 83/17/19 84/18/20
f 6/16/21 5/7/22 98/19/23 83/17/24
f 12/20/25 11/21/26 21/22/27 20/23/28
f 11/21/29 10/24/30 22/25/31 21/22/32
f 14/26/33 13/27/34 76/28/35 77/29/36
f 13/30/37 18/31/38 75/32/39 76/33/40
f 86/34/41 87/35/42 29/36/43 28/6/44
f 87/35/45 88/37/46 30/38/47 29/36/48
f 20/23/49 19/39/50 72/40/51 73/41/52
f 19/42/53 24/43/54 71/44/55 72/45/56
f 26/4/57 25/46/58 79/47/59 80/48/60
f 25/49/61 30/38/62 78/50/63 79/51/64
f 32/52/65 31/53/66 91/54/67 92/55/68
f 31/53/69 36/56/70 90/57/71 91/54/72
f 34/58/73 33/59/74 50/60/75 49/61/76
f 33/59/77 32/52/78 51/62/79 50/60/80
f 40/63/81 39/64/82 95/65/83 96/66/84
f 39/64/85 38/67/86 94/68/87 95/65/88
f 53/69/89 52/70/90 59/71/91 58/72/92
f 52/70/93 57/73/94 60/74/95 59/71/96
f 3/1/97 26/4/98 80/48/99 81/75/100
f 85/76/101 86/34/102 28/6/103 1/5/104
f 32/52/105 92/55/106 93/77/107 51/62/108
f 9/12/109 3/1/110 81/75/111 82/13/112
f 7/15/113 84/18/114 85/76/115 1/5/116
f 51/62/117 93/77/118 94/68/119 38/67/120
f 88/37/121 89/78/122 78/50/123 30/38/124
f 5/7/125 70/10/126 97/79/127 98/19/128
f 12/20/129 74/80/130 75/32/131 18/31/132
f 20/23/133 73/41/134 74/80/135 12/20/136
f 1/5/137 2/2/138 8/81/139 7/15/140
f 2/2/141 3/1/142 9/12/143 8/81/144
f 10/24/145 11/21/146 17/82/147 16/83/148
f 11/21/149 12/20/150 18/31/151 17/82/152
f 38/67/153 37/84/154 50/60/155 51/62/156
f 37/84/157 42/85/158 49/61/159 50/60/160
f 44/86/161 43/87/162 59/71/163 60/74/164
f 43/87/165 48/88/166 58/72/167 59/71/168
f 8/81/169 9/12/170 4/11/171 61/89/172
f 4/8/173 5/7/174 6/16/175 61/89/176
f 6/16/177 7/15/178 8/81/179 61/89/180
f 17/82/181 18/31/182 13/30/183 62/90/184
f 13/27/185 14/26/186 15/91/187 62/90/188
f 15/91/189 16/83/190 17/82/191 62/90/192
f 23/92/193 24/43/194 19/42/195 63/93/196
f 19/39/197 20/23/198 21/22/199 63/93/200
f 21/22/201 22/25/202 23/92/203 63/93/204
f 29/36/205 30/38/206 25/49/207 64/94/208
f 25/46/209 26/4/210 27/3/211 64/94/212
f 27/3/213 28/6/214 29/36/215 64/94/216
f 35/95/217 36/56/218 31/53/219 65/96/220
f 31/53/221 32/52/222 33/59/223 65/96/224
f 33/59/225 34/58/226 35/97/227 65/96/228
f 41/98/229 42/85/230 37/84/231 66/99/232
f 37/84/233 38/67/234 39/64/235 66/99/236
f 39/64/237 40/63/238 41/100/239 66/99/240
f 47/101/241 48/88/242 43/87/243 67/102/244
f 43/87/245 44/86/246 45/103/247 67/102/248
f 45/104/249 46/105/250 47/101/251 67/102/252
f 56/106/253 57/73/254 52/70/255 68/107/256
f 52/70/257 53/69/258 54/108/259 68/107/260
f 54/108/261 55/109/262 56/110/263 68/107/264
f 70/111/265 69/112/266 41/100/267 40/63/268
f 96/66/269 97/113/270 70/111/271 40/63/272
f 72/114/273 71/115/274 46/105/275 45/104/276
f 73/116/277 72/117/278 45/103/279 44/86/280
f 74/118/281 73/116/282 44/86/283 60/74/284
f 75/119/285 74/118/286 60/74/287 57/73/288
f 76/120/289 75/119/290 57/73/291 56/106/292
f 77/121/293 76/122/294 56/110/295 55/109/296
f 78/123/297 89/124/298 90/57/299 36/56/300
f 79/125/301 78/123/302 36/56/303 35/95/304
f 80/126/305 79/127/306 35/97/307 34/58/308
f 81/128/309 80/126/310 34/58/311 49/61/312
f 82/129/313 81/128/314 49/61/315 42/85/316
f 69/130/317 82/129/318 42/85/319 41/98/320
f 84/18/321 83/17/322 23/92/323 22/25/324
f 85/76/325 84/18/326 22/25/327 10/24/328
f 10/24/329 16/83/330 86/34/331 85/76/332
f 16/83/333 15/91/334 87/35/335 86/34/336
f 15/91/337 14/26/338 88/37/339 87/35/340
f 14/26/341 77/29/342 89/78/343 88/37/344
f 90/57/345 89/124/346 77/121/347 55/109/348
f 91/54/349 90/57/350 55/109/351 54/108/352
f 92/55/353 91/54/354 54/108/355 53/69/356
f 93/77/357 92/55/358 53/69/359 58/72/360
f 94/68/361 93/77/362 58/72/363 48/88/364
f 95/65/365 94/68/366 48/88/367 47/101/368
f 96/66/369 95/65/370 47/101/371 46/105/372
f 71/115/373 97/113/374 96/66/375 46/105/376
f 98/19/377 97/79/378 71/44/379 24/43/380
f 83/17/381 98/19/382 24/43/383 23/92/384
