# This file uses centimeters as units for non-parametric coordinates.

mtllib rock_5.mtl
g default
v 2.896611 3.590310 -1.462175
v -4.265062 3.721040 -2.028234
v -3.779327 9.431458 -1.355114
v -1.844703 4.812610 -1.783152
v 1.838565 9.606952 -1.001564
v -3.199484 2.293768 0.326092
v -2.696509 10.188124 -0.136360
v 1.591069 10.557652 -0.354221
v 0.793952 10.802115 0.577862
v 2.595451 3.714420 1.375702
v 1.869552 8.003494 1.657654
v -3.913152 6.899058 0.519875
v 1.816828 2.732527 1.737411
v -1.659314 3.172216 1.426622
v -3.672474 5.507181 1.340545
v -3.593260 2.844456 1.207560
v 1.376187 6.749795 2.069990
v -2.295510 10.554754 -0.703308
v 0.996565 10.823165 -0.335870
v -1.858260 11.043339 -0.315917
v -1.840437 10.949912 0.056483
v 2.994229 -0.068833 -1.310969
v 3.206308 0.154580 -1.500303
v -2.372206 0.148914 -2.069990
v -2.207740 -0.073526 -1.840465
v -3.206308 0.195616 0.797061
v -2.958513 -0.021822 0.620274
v 2.784124 0.019208 1.189019
v 2.949514 0.251732 1.418922
vt 0.057597 0.826269
vt 0.017401 0.871084
vt 0.025032 0.843726
vt 0.865766 0.827250
vt 0.867021 0.780048
vt 0.899658 0.768618
vt 0.890120 0.706151
vt 0.933627 0.707853
vt 0.056613 0.873648
vt 0.053382 0.748798
vt 0.026194 0.782253
vt 0.037756 0.738134
vt 0.954116 0.743823
vt 0.981589 0.776937
vt 0.945853 0.756951
vt 0.189134 0.891579
vt 0.191157 0.825408
vt 0.220134 0.901144
vt 0.011547 0.834598
vt 0.247412 0.795256
vt 0.266466 0.764484
vt 0.257341 0.809550
vt 0.979388 0.834371
vt 0.981452 0.880223
vt 0.941866 0.837629
vt 0.184841 0.752553
vt 0.234371 0.845889
vt 0.012275 0.798945
vt 0.239366 0.863463
vt 0.215036 0.796536
vt 0.597075 0.971216
vt 0.563379 0.964974
vt 0.563495 0.895322
vt 0.596801 0.894805
vt 0.939557 0.788417
vt 0.189851 0.789125
vt 0.046405 0.732400
vt 0.182772 0.845682
vt 0.235884 0.906249
vt 0.932580 0.692428
vt 0.924860 0.688416
vt 0.926585 0.676288
vt 0.904520 0.682316
vt 0.906375 0.677545
vt 0.200305 0.902254
vt 0.037974 0.722814
vt 0.043040 0.722967
vt 0.897473 0.689670
vt 0.942899 0.883104
vt 0.600766 0.891396
vt 0.600745 0.975136
vt 0.559465 0.968284
vt 0.559738 0.891756
vt 0.939416 0.833905
vn -0.967209 -0.037545 -0.251191
vn -0.967209 -0.037545 -0.251191
vn -0.967209 -0.037545 -0.251191
vn 0.101184 0.016786 -0.994726
vn 0.081402 0.046582 -0.995592
vn 0.098065 0.071553 -0.992604
vn 0.089747 0.278238 -0.956310
vn 0.103338 0.310558 -0.944921
vn 0.098065 0.071553 -0.992604
vn -0.997306 -0.005923 -0.073115
vn -0.977769 0.110812 -0.178013
vn -0.958701 -0.060412 -0.277927
vn -0.945448 0.266277 -0.187682
vn -0.977769 0.110812 -0.178013
vn -0.979303 0.201374 -0.020360
vn -0.945448 0.266277 -0.187682
vn -0.979303 0.201374 -0.020360
vn -0.876982 0.455512 -0.153008
vn 0.977399 0.185882 0.100694
vn 0.981511 0.167624 0.092401
vn 0.979472 0.177469 0.095597
vn -0.979303 0.201374 -0.020360
vn -0.977769 0.110812 -0.178013
vn -0.984593 0.087126 0.151609
vn -0.377108 0.285021 0.881222
vn -0.291539 0.124119 0.948472
vn 0.130226 0.432620 0.892122
vn -0.823871 0.132111 0.551165
vn -0.979303 0.201374 -0.020360
vn -0.984593 0.087126 0.151609
vn 0.112758 -0.059355 0.991848
vn 0.010248 -0.122725 0.992388
vn 0.438043 0.000368 0.898954
vn 0.986215 0.132692 0.098856
vn 0.991298 0.094654 0.091482
vn 0.987449 0.127115 0.093740
vn -0.997306 -0.005923 -0.073115
vn -0.823871 0.132111 0.551165
vn -0.984593 0.087126 0.151609
vn 0.010248 -0.122725 0.992388
vn 0.112758 -0.059355 0.991848
vn -0.108481 -0.129461 0.985633
vn 0.122041 0.118127 0.985470
vn 0.130226 0.432620 0.892122
vn -0.291539 0.124119 0.948472
vn -0.823871 0.132111 0.551165
vn -0.852477 0.123068 0.508073
vn -0.979303 0.201374 -0.020360
vn 0.151031 0.320029 0.935292
vn 0.122041 0.118127 0.985470
vn 0.438043 0.000368 0.898954
vn 0.122041 0.118127 0.985470
vn -0.119955 -0.106107 0.987093
vn 0.112758 -0.059355 0.991848
vn -0.356825 -0.900657 0.247977
vn -0.249394 -0.896765 -0.365534
vn 0.363821 -0.893407 -0.263550
vn 0.311286 -0.880483 0.357563
vn 0.089747 0.278238 -0.956310
vn 0.098065 0.071553 -0.992604
vn 0.081402 0.046582 -0.995592
vn 0.098065 0.071553 -0.992604
vn 0.103338 0.310558 -0.944921
vn 0.116223 0.044811 -0.992212
vn 0.116223 0.044811 -0.992212
vn 0.101184 0.016786 -0.994726
vn 0.098065 0.071553 -0.992604
vn -0.112088 -0.107011 0.987920
vn -0.108481 -0.129461 0.985633
vn -0.119955 -0.106107 0.987093
vn -0.945448 0.266277 -0.187682
vn -0.876982 0.455512 -0.153008
vn -0.784171 0.611728 -0.104238
vn -0.614724 0.302273 0.728522
vn -0.291539 0.124119 0.948472
vn -0.377108 0.285021 0.881222
vn 0.981511 0.167624 0.092401
vn 0.986215 0.132692 0.098856
vn 0.987449 0.127115 0.093740
vn 0.727378 0.471816 0.498307
vn 0.130226 0.432620 0.892122
vn 0.151031 0.320029 0.935292
vn 0.112758 -0.059355 0.991848
vn -0.119955 -0.106107 0.987093
vn -0.108481 -0.129461 0.985633
vn 0.151031 0.320029 0.935292
vn 0.130226 0.432620 0.892122
vn 0.122041 0.118127 0.985470
vn 0.122041 0.118127 0.985470
vn 0.112758 -0.059355 0.991848
vn 0.438043 0.000368 0.898954
vn -0.291539 0.124119 0.948472
vn -0.112088 -0.107011 0.987920
vn 0.122041 0.118127 0.985470
vn 0.122041 0.118127 0.985470
vn -0.112088 -0.107011 0.987920
vn -0.119955 -0.106107 0.987093
vn 0.200044 0.719422 -0.665142
vn 0.227722 0.874415 -0.428416
vn 0.198072 0.976068 0.089768
vn 0.198072 0.976068 0.089768
vn 0.227722 0.874415 -0.428416
vn 0.090134 0.855602 -0.509726
vn 0.090134 0.855602 -0.509726
vn 0.011960 0.970007 0.242781
vn 0.198072 0.976068 0.089768
vn 0.130226 0.432620 0.892122
vn -0.332261 0.137156 0.933162
vn -0.377108 0.285021 0.881222
vn -0.707430 0.704722 0.053945
vn -0.707430 0.704722 0.053945
vn -0.784171 0.611728 -0.104238
vn -0.876982 0.455512 -0.153008
vn 0.227722 0.874415 -0.428416
vn 0.200044 0.719422 -0.665142
vn 0.103338 0.310558 -0.944921
vn 0.089747 0.278238 -0.956310
vn 0.089747 0.278238 -0.956310
vn 0.086589 0.508791 -0.856525
vn 0.090134 0.855602 -0.509726
vn 0.227722 0.874415 -0.428416
vn 0.979472 0.177469 0.095597
vn 0.981511 0.167624 0.092401
vn 0.987449 0.127115 0.093740
vn 0.987449 0.127115 0.093740
vn 0.991298 0.094654 0.091482
vn 0.992495 0.088527 0.084359
vn 0.382081 -0.774669 0.503888
vn -0.455305 -0.822051 0.341950
vn -0.356825 -0.900657 0.247977
vn 0.311286 -0.880483 0.357563
vn -0.455305 -0.822051 0.341950
vn -0.366880 -0.775699 -0.513508
vn -0.249394 -0.896765 -0.365534
vn -0.356825 -0.900657 0.247977
vn 0.363821 -0.893407 -0.263550
vn -0.249394 -0.896765 -0.365534
vn -0.366880 -0.775699 -0.513508
vn 0.489715 -0.784104 -0.381260
vn 0.311286 -0.880483 0.357563
vn 0.363821 -0.893407 -0.263550
vn 0.489715 -0.784104 -0.381260
vn 0.382081 -0.774669 0.503888
vn 0.101184 0.016786 -0.994726
vn 0.116223 0.044811 -0.992212
vn 0.101552 0.020192 -0.994625
s off
g SM_Rocks_08 Rocks_Stylized
usemtl aiStandardSurface10SG
f 2/1/1 26/2/2 6/3/3
f 24/4/4 2/5/5 4/6/6
f 3/7/7 5/8/8 4/6/9
f 26/2/10 2/1/11 24/9/12
f 3/10/13 2/1/14 12/11/15
f 3/10/16 12/11/17 7/12/18
f 8/13/19 11/14/20 5/15/21
f 12/11/22 2/1/23 6/3/24
f 7/16/25 15/17/26 9/18/27
f 16/19/28 12/11/29 6/3/30
f 13/20/31 29/21/32 10/22/33
f 10/23/34 29/24/35 1/25/36
f 26/2/37 16/19/38 6/3/39
f 29/21/40 13/20/41 26/26/42
f 17/27/43 9/18/44 15/17/45
f 16/19/46 15/28/47 12/11/48
f 11/29/49 17/27/50 10/22/51
f 17/27/52 14/30/53 13/20/54
f 27/31/55 25/32/56 22/33/57 28/34/58
f 3/7/59 4/6/60 2/5/61
f 4/6/62 5/8/63 1/35/64
f 1/35/65 24/4/66 4/6/67
f 16/36/68 26/26/69 14/30/70
f 3/10/71 7/12/72 18/37/73
f 12/38/74 15/17/75 7/16/76
f 11/14/77 10/23/78 1/25/79
f 8/39/80 9/18/81 11/29/82
f 13/20/83 14/30/84 26/26/85
f 11/29/86 9/18/87 17/27/88
f 17/27/89 13/20/90 10/22/91
f 15/17/92 16/36/93 17/27/94
f 17/27/95 16/36/96 14/30/97
f 8/40/98 19/41/99 9/42/100
f 9/42/101 19/41/102 20/43/103
f 20/43/104 21/44/105 9/42/106
f 9/18/107 21/45/108 7/16/109
f 21/46/110 20/47/111 18/37/112 7/12/113
f 19/41/114 8/40/115 5/8/116 3/7/117
f 3/7/118 18/48/119 20/43/120 19/41/121
f 5/15/122 11/14/123 1/25/124
f 1/25/125 29/24/126 23/49/127
f 29/50/128 26/51/129 27/31/130 28/34/131
f 26/51/132 24/52/133 25/32/134 27/31/135
f 22/33/136 25/32/137 24/52/138 23/53/139
f 28/34/140 22/33/141 23/53/142 29/50/143
f 24/4/144 1/35/145 23/54/146
